<svg xmlns="http://www.w3.org/2000/svg" width="50.489" height="66.38" viewBox="0 0 50.489 66.38"><defs><style>.a{fill:#b7b7b7;}</style></defs><path class="a" d="M117.9,32.464c7.38,0,13.364-7.267,13.364-16.232S129.3,0,117.9,0s-13.364,7.267-13.364,16.232S110.518,32.464,117.9,32.464Z" transform="translate(-92.655 0)"/><path class="a" d="M41.9,300.653c0-.547,0-.154,0,0Z" transform="translate(-41.895 -243.404)"/><path class="a" d="M308.085,301.982c.007-.15,0-1.038,0,0Z" transform="translate(-257.6 -244.307)"/><path class="a" d="M92.362,200.623c-.247-15.617-2.287-20.067-17.894-22.883,0,0-2.2,2.8-7.318,2.8s-7.318-2.8-7.318-2.8c-15.437,2.786-17.6,7.17-17.885,22.376-.023,1.242-.034,1.307-.038,1.163,0,.27,0,.77,0,1.641,0,0,3.716,7.491,25.239,7.491s25.24-7.491,25.24-7.491c0-.56,0-.949,0-1.214A10.045,10.045,0,0,1,92.362,200.623Z" transform="translate(-41.906 -144.03)"/></svg>